<svg width="33" height="33" viewBox="0 0 33 33" fill="none" xmlns="http://www.w3.org/2000/svg">
<path d="M27.8372 19.8531C25.8742 20.3986 23.8015 20.4129 21.8311 19.8947C19.8608 19.3765 18.0633 18.3443 16.6227 16.9036C15.182 15.463 14.1498 13.6656 13.6316 11.6952C13.1134 9.72482 13.1277 7.65216 13.6732 5.68915L13.6735 5.68925C11.7374 6.22787 9.97611 7.2644 8.56524 8.69558C7.15437 10.1268 6.14313 11.9026 5.63224 13.8463C5.12136 15.79 5.12867 17.8336 5.65344 19.7735C6.17822 21.7135 7.20214 23.4821 8.62321 24.9032C10.0443 26.3242 11.8129 27.3481 13.7529 27.8729C15.6928 28.3976 17.7364 28.4049 19.6801 27.894C21.6237 27.3831 23.3996 26.3719 24.8308 24.961C26.262 23.5501 27.2985 21.7888 27.8371 19.8527L27.8372 19.8531Z" stroke="#00C58E" stroke-width="2" stroke-linecap="round" stroke-linejoin="round"/>
</svg>
