<svg width="33" height="35" viewBox="0 0 33 35" fill="none" xmlns="http://www.w3.org/2000/svg">
<path d="M31.7443 0.212602C31.5258 0.212602 31.3162 0.299427 31.1616 0.453976C31.0071 0.608524 30.9202 0.818137 30.9202 1.0367V14.3212C30.424 13.6011 29.7701 13.0036 29.0083 12.5741L8.65305 0.77299C7.77985 0.268797 6.78975 0.00228227 5.78145 1.4593e-05C4.77314 -0.00225308 3.78185 0.259805 2.9064 0.760066C2.03094 1.26033 1.3019 1.98132 0.791942 2.85116C0.281987 3.72101 0.00893349 4.70932 0 5.71759V29.2704C0.00396654 30.2806 0.27392 31.272 0.7827 32.1447C1.29148 33.0175 2.02114 33.7409 2.89827 34.2421C3.77541 34.7433 4.76907 35.0047 5.7793 34.9999C6.78953 34.9952 7.78068 34.7244 8.65305 34.215L29.0083 22.4633C29.7755 22.0197 30.4298 21.4049 30.9202 20.6668V34.0007C30.9202 34.2193 31.0071 34.4289 31.1616 34.5834C31.3162 34.738 31.5258 34.8248 31.7443 34.8248C31.9629 34.8248 32.1725 34.738 32.3271 34.5834C32.4816 34.4289 32.5684 34.2193 32.5684 34.0007V1.0367C32.5684 0.818137 32.4816 0.608524 32.3271 0.453976C32.1725 0.299427 31.9629 0.212602 31.7443 0.212602ZM28.1842 21.0953L7.82895 32.847C7.20196 33.209 6.49065 33.3994 5.76666 33.399C5.04268 33.3987 4.33156 33.2075 3.70492 32.8449C3.07829 32.4823 2.55825 31.961 2.19719 31.3335C1.83612 30.7059 1.64677 29.9944 1.6482 29.2704V5.76704C1.64677 5.04305 1.83612 4.33146 2.19719 3.70393C2.55825 3.0764 3.07829 2.55509 3.70492 2.19247C4.33156 1.82986 5.04268 1.63875 5.76666 1.6384C6.49065 1.63804 7.20196 1.82845 7.82895 2.19044L28.1842 13.9421C28.8106 14.3038 29.3307 14.8239 29.6923 15.4503C30.0539 16.0767 30.2443 16.7872 30.2443 17.5105C30.2443 18.2337 30.0539 18.9442 29.6923 19.5706C29.3307 20.197 28.8106 20.7171 28.1842 21.0788V21.0953Z" fill="#808080"/>
</svg>
