<svg width="37" height="30" viewBox="0 0 37 30" fill="none" xmlns="http://www.w3.org/2000/svg">
<path d="M28.0843 24.9321C25.4369 27.5771 21.9209 29.0341 18.1792 29.0341C10.4618 29.0341 4.18195 22.7579 4.17463 15.043L7.03061 17.9026C7.21991 18.0907 7.5245 18.0907 7.7136 17.9026C7.90046 17.7133 7.90046 17.4077 7.7136 17.2196L3.92738 13.4318L0.141976 17.2196C-0.0473252 17.4077 -0.0473252 17.7135 0.141976 17.9026C0.235304 17.9971 0.359133 18.0433 0.481741 18.0433C0.606789 18.0433 0.730414 17.9959 0.822726 17.9026L3.22731 15.4968C3.47843 23.5346 10.0773 30 18.1746 30C22.1747 30 25.9345 28.4422 28.7638 25.6141C28.9519 25.426 28.9519 25.1202 28.7638 24.9323C28.5806 24.7428 28.2736 24.7428 28.0843 24.9321Z" fill="#808080"/>
<path d="M36.258 12.0974C36.0711 11.9093 35.7653 11.9093 35.5762 12.0974L33.1738 14.5019C32.9203 6.46408 26.3214 0 18.2254 0C14.2228 0 10.4642 1.55772 7.6349 4.38584C7.44559 4.57392 7.44559 4.87973 7.6349 5.06761C7.82176 5.25691 8.12879 5.25691 8.31666 5.06761C10.9628 2.42268 14.48 0.965617 18.2217 0.965617C25.9379 0.965617 32.219 7.2406 32.2288 14.9568L29.3703 12.0972C29.1823 11.9091 28.8764 11.9091 28.6873 12.0972C28.5005 12.2865 28.5005 12.5921 28.6873 12.7801L32.474 16.5668L36.2594 12.7801C36.4473 12.5923 36.4473 12.2865 36.258 12.0974Z" fill="#808080"/>
</svg>
