<svg width="30" height="30" viewBox="0 0 30 30" fill="none" xmlns="http://www.w3.org/2000/svg">
<g clip-path="url(#clip0)">
<path d="M27.6887 18.8842C27.418 18.6135 26.979 18.6135 26.7083 18.8842C26.4376 19.155 26.4376 19.594 26.7083 19.8647L27.633 20.7894H26.9417C22.9521 20.7894 19.2015 19.2357 16.3805 16.4148L15.4536 15.4879L17.3564 13.5851C20.1093 10.8321 23.7479 9.28699 27.6296 9.21406L26.7084 10.1352C26.4377 10.4061 26.4377 10.845 26.7084 11.1157C26.8438 11.251 27.0212 11.3187 27.1986 11.3187C27.376 11.3187 27.5535 11.251 27.6888 11.1157L29.7971 9.00745C30.0679 8.73661 30.0679 8.29771 29.7971 8.02695L27.6888 5.91869C27.4181 5.64803 26.9791 5.64803 26.7084 5.91869C26.4377 6.18954 26.4377 6.62844 26.7084 6.8992L27.6365 7.82728C23.3817 7.89865 19.3923 9.58806 16.3759 12.6045L14.4731 14.5073L12.5703 12.6045C9.48749 9.52169 5.38865 7.82386 1.02866 7.82386H0.963215C0.580333 7.82386 0.269922 8.13418 0.269922 8.51716C0.269922 8.90013 0.580333 9.21045 0.963215 9.21045H1.02866C5.01824 9.21045 8.76896 10.7641 11.5898 13.585L13.4926 15.4878L12.5657 16.4147C9.74475 19.2357 5.99403 20.7893 2.00454 20.7893H0.693293C0.31041 20.7893 0 21.0996 0 21.4826C0 21.8655 0.31041 22.1759 0.693293 22.1759H2.00436C6.36434 22.1759 10.4632 20.478 13.546 17.3952L14.473 16.4682L15.4 17.3952C18.4828 20.478 22.5817 22.1759 26.9417 22.1759H27.633L26.7083 23.1005C26.4376 23.3714 26.4376 23.8103 26.7083 24.081C26.8437 24.2164 27.0212 24.284 27.1985 24.284C27.3759 24.284 27.5534 24.2164 27.6887 24.081L29.797 21.9728C30.0678 21.7019 30.0678 21.263 29.797 20.9923L27.6887 18.8842Z" fill="#808080"/>
</g>
<defs>
<clipPath id="clip0">
<rect width="30" height="30" fill="white"/>
</clipPath>
</defs>
</svg>
