<svg width="37" height="27" viewBox="0 0 37 27" fill="none" xmlns="http://www.w3.org/2000/svg">
<path d="M21.0827 7.43623L19.8165 9.58388L15.4861 2.23713L2.19258 24.7875H11.1932C11.1932 25.9736 12.1748 26.9351 13.3858 26.9351H2.19258C1.40932 26.9351 0.685625 26.5256 0.294059 25.8611C-0.0975075 25.1966 -0.0974677 24.3781 0.294164 23.7136L13.5877 1.1633C13.9793 0.498783 14.7032 0.0894165 15.4865 0.0894165C16.2699 0.0894165 16.9938 0.498783 17.3854 1.1633L21.0827 7.43623Z" fill="#00C58E"/>
<path d="M30.6789 23.7136L22.3489 9.58387L21.0827 7.43622L19.8165 9.58387L11.4874 23.7136C11.0957 24.378 11.0957 25.1966 11.4872 25.8611C11.8788 26.5256 12.6025 26.9351 13.3858 26.9351H28.7778C29.5612 26.9351 30.2852 26.526 30.677 25.8615C31.0688 25.197 31.0688 24.3782 30.6771 23.7136H30.6789ZM13.3858 24.7874L21.0827 11.7315L28.7778 24.7875H13.3858L13.3858 24.7874Z" fill="#2F495E"/>
<path d="M36.6346 25.8613C36.243 26.5257 35.5193 26.9351 34.7361 26.9351H28.7778C29.9887 26.9351 30.9704 25.9736 30.9704 24.7875H34.7316L24.0591 6.68189L22.3489 9.5839L21.0827 7.43625L22.1607 5.60807C22.5524 4.94355 23.2762 4.53418 24.0596 4.53418C24.843 4.53418 25.5668 4.94355 25.9585 5.60807L36.6346 23.7136C37.0262 24.3781 37.0262 25.1968 36.6346 25.8613Z" fill="#108775"/>
</svg>
