<svg width="50" height="50" viewBox="0 0 50 50" fill="none" xmlns="http://www.w3.org/2000/svg">
<g clip-path="url(#clip0)">
<path d="M42.5947 17.4145C41.859 16.9559 40.8917 17.1802 40.4335 17.9156C39.9752 18.651 40.1995 19.6183 40.9346 20.0766C42.6454 21.1435 43.6666 22.984 43.6666 25.0001C43.6666 27.0163 42.6454 28.8568 40.9346 29.9237L15.2054 45.9664C13.3902 47.0981 11.19 47.1538 9.32002 46.1162C7.44974 45.0783 6.33317 43.1816 6.33317 41.0429V8.95717C6.33317 6.8184 7.44974 4.92172 9.32002 3.88383C11.19 2.84621 13.3902 2.9019 15.2054 4.03363L30.1833 13.3727C30.9187 13.8308 31.886 13.6067 32.3445 12.8716C32.8028 12.1364 32.5785 11.1689 31.8434 10.7106L16.8654 1.37174C14.0692 -0.371741 10.6797 -0.458274 7.79771 1.1409C4.91647 2.73981 3.19626 5.66183 3.19626 8.95717V41.0426C3.19626 44.3379 4.91647 47.26 7.79797 48.8589C9.17048 49.6204 10.6578 49.9998 12.1419 49.9998C13.7735 49.9998 15.4012 49.5412 16.8654 48.628L42.5947 32.5853C45.2305 30.9417 46.804 28.1062 46.804 24.9999C46.804 21.8936 45.2305 19.0581 42.5947 17.4145Z" fill="#1DD1A1"/>
</g>
<defs>
<clipPath id="clip0">
<rect width="50" height="50" fill="white"/>
</clipPath>
</defs>
</svg>
