<svg width="33" height="35" viewBox="0 0 33 35" fill="none" xmlns="http://www.w3.org/2000/svg">
<path d="M1.25567 34.7874C1.47423 34.7874 1.68384 34.7006 1.83839 34.546C1.99294 34.3915 2.07977 34.1819 2.07977 33.9633V20.6788C2.57598 21.3989 3.22985 21.9964 3.99168 22.4259L24.3469 34.227C25.2201 34.7312 26.2102 34.9977 27.2186 35C28.2269 35.0023 29.2181 34.7402 30.0936 34.2399C30.9691 33.7397 31.6981 33.0187 32.2081 32.1488C32.718 31.279 32.9911 30.2907 33 29.2824L33 5.72963C32.996 4.7194 32.7261 3.72803 32.2173 2.85526C31.7085 1.98249 30.9789 1.25911 30.1017 0.757893C29.2246 0.256676 28.2309 -0.00470352 27.2207 6.10352e-05C26.2105 0.00482559 25.2193 0.275566 24.3469 0.785034L3.99168 12.5367C3.2245 12.9803 2.57018 13.5951 2.07977 14.3332V0.999298C2.07977 0.780735 1.99294 0.571117 1.83839 0.416569C1.68384 0.26202 1.47423 0.175198 1.25567 0.175198C1.0371 0.175198 0.827488 0.26202 0.672939 0.416569C0.518391 0.571117 0.431568 0.780735 0.431568 0.999298L0.431568 33.9633C0.431568 34.1819 0.518391 34.3915 0.672939 34.546C0.827488 34.7006 1.0371 34.7874 1.25567 34.7874ZM4.81578 13.9047L25.171 2.15304C25.798 1.79104 26.5093 1.60064 27.2333 1.60099C27.9573 1.60135 28.6684 1.79245 29.2951 2.15507C29.9217 2.51768 30.4417 3.039 30.8028 3.66653C31.1639 4.29406 31.3532 5.00565 31.3518 5.72963L31.3518 29.233C31.3532 29.957 31.1639 30.6685 30.8028 31.2961C30.4417 31.9236 29.9217 32.4449 29.2951 32.8075C28.6684 33.1701 27.9573 33.3612 27.2333 33.3616C26.5093 33.362 25.798 33.1716 25.171 32.8096L4.81578 21.0579C4.18943 20.6962 3.66932 20.1761 3.3077 19.5497C2.94608 18.9233 2.7557 18.2128 2.7557 17.4895C2.7557 16.7663 2.94608 16.0558 3.3077 15.4294C3.66932 14.803 4.18943 14.2829 4.81578 13.9212V13.9047Z" fill="#808080"/>
</svg>
