<svg width="490" height="490" viewBox="0 0 490 490" fill="none" xmlns="http://www.w3.org/2000/svg">
<g clip-path="url(#clip0)">
<path d="M436.2 444.1H53.8C24.1 444.1 0 419.9 0 390.3V161.6C0 131.9 24.1 107.8 53.8 107.8H164.8C171.6 107.8 177.1 113.3 177.1 120.1C177.1 126.9 171.6 132.4 164.8 132.4H53.8C37.6 132.4 24.5 145.5 24.5 161.7V390.4C24.5 406.6 37.6 419.7 53.8 419.7H436.2C452.4 419.7 465.5 406.6 465.5 390.4V161.6C465.5 145.4 452.4 132.3 436.2 132.3H274.6L315.7 173.4C320.5 178.2 320.5 185.9 315.7 190.7C313.3 193.1 310.2 194.3 307 194.3C303.8 194.3 300.7 193.1 298.3 190.7L236.3 128.7C231.5 123.9 231.5 116.2 236.3 111.4L298.3 49.4C303.1 44.6 310.8 44.6 315.6 49.4C320.4 54.2 320.4 61.9 315.6 66.7L274.5 107.8H436.1C465.8 107.8 489.9 131.9 489.9 161.6V390.3C490 419.9 465.9 444.1 436.2 444.1Z" fill="#1DD1A1"/>
</g>
<defs>
<clipPath id="clip0">
<rect width="489.9" height="489.9" fill="white"/>
</clipPath>
</defs>
</svg>
